<svg width="147" height="156" viewBox="0 0 147 156" fill="none" xmlns="http://www.w3.org/2000/svg">
<circle cx="78.9182" cy="67.7805" r="67.2093" fill="#F3E0D2" stroke="#462D1B" stroke-width="1.14237"/>
<mask id="path-2-inside-1_205_233" fill="white">
<path d="M71.3832 6.89856C72.0658 4.46896 74.5894 3.05294 77.019 3.73547L132.131 19.2179C134.561 19.9004 135.978 22.4231 135.295 24.8527L132.185 35.9249C131.502 38.3545 128.979 39.7715 126.549 39.089L107.23 33.6613L102.683 49.4845C101.986 51.9099 99.4542 53.3105 97.0287 52.6134L85.975 49.4366C83.5498 48.7394 82.1491 46.2086 82.8461 43.7833L87.3588 28.0782L71.437 23.6056C69.0074 22.9231 67.5904 20.4004 68.2729 17.9708L71.3832 6.89856Z"/>
</mask>
<path d="M71.3832 6.89856C72.0658 4.46896 74.5894 3.05294 77.019 3.73547L132.131 19.2179C134.561 19.9004 135.978 22.4231 135.295 24.8527L132.185 35.9249C131.502 38.3545 128.979 39.7715 126.549 39.089L107.23 33.6613L102.683 49.4845C101.986 51.9099 99.4542 53.3105 97.0287 52.6134L85.975 49.4366C83.5498 48.7394 82.1491 46.2086 82.8461 43.7833L87.3588 28.0782L71.437 23.6056C69.0074 22.9231 67.5904 20.4004 68.2729 17.9708L71.3832 6.89856Z" fill="#DB925E"/>
<path d="M71.3832 6.89856L70.65 6.69259L70.65 6.69259L71.3832 6.89856ZM77.019 3.73547L77.225 3.00228L77.019 3.73547ZM132.131 19.2179L131.925 19.9511L132.131 19.2179ZM135.295 24.8527L136.029 25.0586L136.029 25.0586L135.295 24.8527ZM132.185 35.9249L132.918 36.1309L132.918 36.1309L132.185 35.9249ZM126.549 39.089L126.343 39.8222L126.343 39.8222L126.549 39.089ZM107.23 33.6613L107.436 32.9281L106.707 32.7233L106.498 33.4509L107.23 33.6613ZM102.683 49.4845L103.415 49.6949L103.415 49.6948L102.683 49.4845ZM97.0287 52.6134L97.2391 51.8815H97.2391L97.0287 52.6134ZM85.975 49.4366L85.7646 50.1686L85.7647 50.1686L85.975 49.4366ZM82.8461 43.7833L83.5781 43.9937L83.5781 43.9936L82.8461 43.7833ZM87.3588 28.0782L88.0908 28.2886L88.3024 27.5522L87.5648 27.345L87.3588 28.0782ZM71.437 23.6056L71.231 24.3388L71.231 24.3388L71.437 23.6056ZM68.2729 17.9708L69.0061 18.1768L69.0061 18.1768L68.2729 17.9708ZM71.3832 6.89856L72.1164 7.10453C72.6852 5.08004 74.7882 3.89984 76.813 4.46867L77.019 3.73547L77.225 3.00228C74.3906 2.20603 71.4464 3.85788 70.65 6.69259L71.3832 6.89856ZM77.019 3.73547L76.813 4.46867L131.925 19.9511L132.131 19.2179L132.337 18.4847L77.225 3.00228L77.019 3.73547ZM132.131 19.2179L131.925 19.9511C133.95 20.5199 135.131 22.6223 134.562 24.6467L135.295 24.8527L136.029 25.0586C136.825 22.224 135.172 19.2809 132.337 18.4847L132.131 19.2179ZM135.295 24.8527L134.562 24.6467L131.452 35.719L132.185 35.9249L132.918 36.1309L136.029 25.0586L135.295 24.8527ZM132.185 35.9249L131.452 35.719C130.883 37.7437 128.78 38.9245 126.755 38.3558L126.549 39.089L126.343 39.8222C129.178 40.6185 132.122 38.9654 132.918 36.1309L132.185 35.9249ZM126.549 39.089L126.755 38.3558L107.436 32.9281L107.23 33.6613L107.024 34.3944L126.343 39.8222L126.549 39.089ZM107.23 33.6613L106.498 33.4509L101.951 49.2742L102.683 49.4845L103.415 49.6948L107.962 33.8716L107.23 33.6613ZM102.683 49.4845L101.951 49.2741C101.37 51.2951 99.2605 52.4624 97.2391 51.8815L97.0287 52.6134L96.8184 53.3454C99.6479 54.1586 102.602 52.5247 103.415 49.6949L102.683 49.4845ZM97.0287 52.6134L97.2391 51.8815L86.1854 48.7047L85.975 49.4366L85.7647 50.1686L96.8184 53.3454L97.0287 52.6134ZM85.975 49.4366L86.1855 48.7047C84.1645 48.1237 82.9972 46.0148 83.5781 43.9937L82.8461 43.7833L82.1142 43.573C81.301 46.4025 82.9352 49.3551 85.7646 50.1686L85.975 49.4366ZM82.8461 43.7833L83.5781 43.9936L88.0908 28.2886L87.3588 28.0782L86.6269 27.8679L82.1142 43.573L82.8461 43.7833ZM87.3588 28.0782L87.5648 27.345L71.6429 22.8724L71.437 23.6056L71.231 24.3388L87.1529 28.8114L87.3588 28.0782ZM71.437 23.6056L71.6429 22.8724C69.618 22.3036 68.4374 20.2012 69.0061 18.1768L68.2729 17.9708L67.5397 17.7649C66.7433 20.5996 68.3967 23.5426 71.231 24.3388L71.437 23.6056ZM68.2729 17.9708L69.0061 18.1768L72.1164 7.10453L71.3832 6.89856L70.65 6.69259L67.5397 17.7649L68.2729 17.9708Z" fill="#462D1B" mask="url(#path-2-inside-1_205_233)"/>
<mask id="path-4-inside-2_205_233" fill="white">
<path d="M9.60651 77.9341C13.3373 73.3783 20.0556 72.7091 24.6114 76.4399L41.8087 90.5239C45.0308 88.4845 49.0329 87.6787 53.045 88.5913L103.848 100.148C107.839 101.056 111.085 103.493 113.11 106.701L114.361 106.189C117.409 104.942 120.748 107.184 120.748 110.477C120.748 111.197 120.916 111.907 121.238 112.55L131.869 133.78C135.541 141.113 132.198 150.021 124.608 153.127L120.164 154.947C112.963 157.894 104.736 154.446 101.788 147.245L100.134 143.205C98.187 143.574 96.1338 143.559 94.0782 143.091L43.2764 131.535C39.6269 130.704 36.6005 128.595 34.5606 125.788C33.992 125.464 33.6252 124.869 33.5694 124.231C32.7557 122.758 32.1905 121.145 31.9131 119.458L4.98053 102.495C-0.444852 99.0772 -1.64837 91.6781 2.41412 86.7173L9.60651 77.9341Z"/>
</mask>
<path d="M9.60651 77.9341C13.3373 73.3783 20.0556 72.7091 24.6114 76.4399L41.8087 90.5239C45.0308 88.4845 49.0329 87.6787 53.045 88.5913L103.848 100.148C107.839 101.056 111.085 103.493 113.11 106.701L114.361 106.189C117.409 104.942 120.748 107.184 120.748 110.477C120.748 111.197 120.916 111.907 121.238 112.55L131.869 133.78C135.541 141.113 132.198 150.021 124.608 153.127L120.164 154.947C112.963 157.894 104.736 154.446 101.788 147.245L100.134 143.205C98.187 143.574 96.1338 143.559 94.0782 143.091L43.2764 131.535C39.6269 130.704 36.6005 128.595 34.5606 125.788C33.992 125.464 33.6252 124.869 33.5694 124.231C32.7557 122.758 32.1905 121.145 31.9131 119.458L4.98053 102.495C-0.444852 99.0772 -1.64837 91.6781 2.41412 86.7173L9.60651 77.9341Z" fill="#DB925E"/>
<path d="M9.60651 77.9341L9.01729 77.4516L9.01728 77.4516L9.60651 77.9341ZM24.6114 76.4399L25.0939 75.8507L25.0939 75.8507L24.6114 76.4399ZM41.8087 90.5239L41.3261 91.1131L41.7514 91.4615L42.216 91.1674L41.8087 90.5239ZM53.045 88.5913L53.2139 87.8487L53.2139 87.8487L53.045 88.5913ZM103.848 100.148L104.017 99.4053L104.017 99.4053L103.848 100.148ZM113.11 106.701L112.466 107.107L112.807 107.647L113.399 107.406L113.11 106.701ZM114.361 106.189L114.65 106.894L114.65 106.894L114.361 106.189ZM120.748 110.477H119.987V110.477L120.748 110.477ZM121.238 112.55L120.557 112.891L120.557 112.891L121.238 112.55ZM131.869 133.78L132.55 133.439V133.439L131.869 133.78ZM124.608 153.127L124.32 152.423H124.32L124.608 153.127ZM120.164 154.947L120.453 155.652L120.453 155.652L120.164 154.947ZM101.788 147.245L102.493 146.956L102.493 146.956L101.788 147.245ZM100.134 143.205L100.839 142.916L100.603 142.34L99.9919 142.456L100.134 143.205ZM94.0782 143.091L94.2471 142.349L94.0782 143.091ZM43.2764 131.535L43.1075 132.277H43.1075L43.2764 131.535ZM34.5606 125.788L35.1767 125.34L35.0801 125.207L34.9374 125.126L34.5606 125.788ZM33.5694 124.231L34.3281 124.165L34.314 124.004L34.236 123.863L33.5694 124.231ZM31.9131 119.458L32.6646 119.335L32.609 118.997L32.319 118.814L31.9131 119.458ZM4.98053 102.495L4.57463 103.139L4.57464 103.139L4.98053 102.495ZM2.41412 86.7173L3.00334 87.1998L3.00335 87.1998L2.41412 86.7173ZM9.60651 77.9341L10.1957 78.4166C13.6601 74.1862 19.8985 73.5649 24.1289 77.0292L24.6114 76.4399L25.0939 75.8507C20.2127 71.8534 13.0146 72.5704 9.01729 77.4516L9.60651 77.9341ZM24.6114 76.4399L24.1289 77.0291L41.3261 91.1131L41.8087 90.5239L42.2912 89.9347L25.0939 75.8507L24.6114 76.4399ZM41.8087 90.5239L42.216 91.1674C45.2739 89.232 49.0695 88.4681 52.8761 89.3339L53.045 88.5913L53.2139 87.8487C48.9962 86.8894 44.7877 87.7371 41.4014 89.8804L41.8087 90.5239ZM53.045 88.5913L52.8761 89.3339L103.679 100.891L103.848 100.148L104.017 99.4053L53.2139 87.8487L53.045 88.5913ZM103.848 100.148L103.679 100.891C107.465 101.752 110.544 104.063 112.466 107.107L113.11 106.701L113.754 106.294C111.626 102.923 108.212 100.36 104.017 99.4053L103.848 100.148ZM113.11 106.701L113.399 107.406L114.65 106.894L114.361 106.189L114.073 105.484L112.822 105.996L113.11 106.701ZM114.361 106.189L114.65 106.894C117.196 105.852 119.987 107.725 119.987 110.477H120.748H121.51C121.51 106.643 117.622 104.032 114.073 105.484L114.361 106.189ZM120.748 110.477L119.987 110.477C119.987 111.315 120.182 112.142 120.557 112.891L121.238 112.55L121.919 112.209C121.65 111.671 121.51 111.078 121.51 110.477L120.748 110.477ZM121.238 112.55L120.557 112.891L131.188 134.121L131.869 133.78L132.55 133.439L121.919 112.209L121.238 112.55ZM131.869 133.78L131.188 134.121C134.662 141.058 131.499 149.484 124.32 152.423L124.608 153.127L124.897 153.832C132.897 150.557 136.421 141.168 132.55 133.439L131.869 133.78ZM124.608 153.127L124.32 152.423L119.876 154.242L120.164 154.947L120.453 155.652L124.897 153.832L124.608 153.127ZM120.164 154.947L119.876 154.242C113.064 157.03 105.281 153.768 102.493 146.956L101.788 147.245L101.083 147.533C104.19 155.123 112.862 158.758 120.453 155.652L120.164 154.947ZM101.788 147.245L102.493 146.956L100.839 142.916L100.134 143.205L99.4291 143.493L101.083 147.533L101.788 147.245ZM100.134 143.205L99.9919 142.456C98.1456 142.807 96.1983 142.793 94.2471 142.349L94.0782 143.091L93.9093 143.834C96.0693 144.325 98.2283 144.341 100.276 143.953L100.134 143.205ZM94.0782 143.091L94.2471 142.349L43.4454 130.792L43.2764 131.535L43.1075 132.277L93.9093 143.834L94.0782 143.091ZM43.2764 131.535L43.4454 130.792C39.9826 130.004 37.1124 128.004 35.1767 125.34L34.5606 125.788L33.9445 126.235C36.0885 129.186 39.2711 131.405 43.1075 132.277L43.2764 131.535ZM34.5606 125.788L34.9374 125.126C34.5933 124.93 34.3628 124.562 34.3281 124.165L33.5694 124.231L32.8107 124.297C32.8876 125.176 33.3907 125.998 34.1838 126.449L34.5606 125.788ZM33.5694 124.231L34.236 123.863C33.4639 122.465 32.9278 120.935 32.6646 119.335L31.9131 119.458L31.1617 119.582C31.4533 121.356 32.0475 123.051 32.9028 124.599L33.5694 124.231ZM31.9131 119.458L32.319 118.814L5.38642 101.85L4.98053 102.495L4.57464 103.139L31.5073 120.103L31.9131 119.458ZM4.98053 102.495L5.38643 101.85C0.348586 98.6769 -0.768987 91.8063 3.00334 87.1998L2.41412 86.7173L1.82491 86.2348C-2.52776 91.5499 -1.23829 99.4775 4.57463 103.139L4.98053 102.495ZM2.41412 86.7173L3.00335 87.1998L10.1957 78.4166L9.60651 77.9341L9.01728 77.4516L1.8249 86.2348L2.41412 86.7173Z" fill="#462D1B" mask="url(#path-4-inside-2_205_233)"/>
<rect x="38.8513" y="85.7528" width="81.04" height="43.2785" rx="14.47" transform="rotate(12.816 38.8513 85.7528)" fill="#DB925E" stroke="#462D1B" stroke-width="0.761578"/>
<rect x="36.1417" y="84.746" width="88.6519" height="17.9396" rx="3.4271" transform="rotate(12.816 36.1417 84.746)" fill="#DB925E"/>
<rect x="32.8255" y="53.2554" width="14.2481" height="21.9634" rx="4.95026" transform="rotate(9.07811 32.8255 53.2554)" fill="#DB925E" stroke="#462D1B" stroke-width="0.761578"/>
<rect x="132.558" y="79.3565" width="14.2481" height="21.9634" rx="4.95026" transform="rotate(16.0348 132.558 79.3565)" fill="#DB925E" stroke="#462D1B" stroke-width="0.761578"/>
<rect x="46.6825" y="35.5713" width="97.4559" height="62.6066" rx="15.2316" transform="rotate(12.816 46.6825 35.5713)" fill="#DB925E" stroke="#462D1B" stroke-width="0.761578"/>
<ellipse cx="64.0101" cy="72.9517" rx="9.85429" ry="14.1968" transform="rotate(16.1765 64.0101 72.9517)" fill="#BF7D4D" stroke="#462D1B" stroke-width="0.761578"/>
<ellipse cx="102.618" cy="81.4951" rx="9.85429" ry="14.1968" transform="rotate(16.1765 102.618 81.4951)" fill="#BF7D4D" stroke="#462D1B" stroke-width="0.761578"/>
<path d="M26.1484 82.4557C27.4745 79.6363 31.0906 78.8032 33.5167 80.7579C35.4377 82.3057 35.8758 85.0562 34.5308 87.1242L27.5978 97.784C26.9232 98.8211 26.1484 99.7895 25.2845 100.675L15.5198 110.685C13.7678 112.481 10.9374 112.65 8.9837 111.076C6.56706 109.129 6.56621 105.447 8.98195 103.499L11.9114 101.137C12.2563 100.858 12.5772 100.552 12.8706 100.22L17.9526 94.4715L23.7394 87.1192C24.0951 86.6672 24.3983 86.1763 24.6431 85.6558L26.1484 82.4557Z" fill="#BF7D4D" stroke="#462D1B" stroke-width="0.761578"/>
<path d="M127.704 130.771C130.157 128.851 133.761 129.735 135.048 132.572C136.066 134.819 135.219 137.473 133.087 138.714L122.097 145.111C121.028 145.733 119.9 146.249 118.73 146.651L105.505 151.193C103.132 152.007 100.528 150.884 99.4921 148.599C98.2109 145.773 99.8675 142.485 102.902 141.833L106.581 141.042C107.014 140.949 107.439 140.82 107.85 140.656L114.976 137.811L123.453 133.851C123.974 133.607 124.466 133.306 124.919 132.951L127.704 130.771Z" fill="#BF7D4D" stroke="#462D1B" stroke-width="0.761578"/>
<path d="M111.08 130.239C114.067 130.565 116.113 133.406 115.476 136.342C114.901 138.988 112.346 140.713 109.677 140.256L71.6082 133.736L31.2448 123.216C28.6071 122.529 26.9812 119.883 27.5595 117.219C28.1949 114.292 31.2111 112.546 34.0659 113.453L51.3292 118.938L70.0271 123.388L93.0952 128.276L111.08 130.239Z" fill="#BF7D4D" stroke="#462D1B" stroke-width="0.761578"/>
</svg>
