<svg width="81" height="87" viewBox="0 0 81 87" fill="none" xmlns="http://www.w3.org/2000/svg">
<circle cx="43.5749" cy="37.4255" r="37.4255" fill="#F3E0D2"/>
<circle cx="43.5749" cy="37.4255" r="37.1101" stroke="#D3712C" stroke-opacity="0.52" stroke-width="0.630767"/>
<mask id="path-3-inside-1_103_461" fill="white">
<path d="M39.415 3.80908C39.7919 2.4677 41.185 1.68542 42.5264 2.06201L72.958 10.6108C74.2994 10.9877 75.0808 12.3807 74.7041 13.7222L72.9873 19.8364C72.6104 21.1778 71.2174 21.9592 69.876 21.5825L59.208 18.5854L56.6973 27.3228C56.3124 28.662 54.9144 29.4362 53.5752 29.0513L47.4717 27.2964C46.1328 26.9113 45.3595 25.5143 45.7441 24.1753L48.2354 15.5034L39.4443 13.0337C38.103 12.6567 37.3214 11.2638 37.6982 9.92236L39.415 3.80908Z"/>
</mask>
<path d="M39.415 3.80908C39.7919 2.4677 41.185 1.68542 42.5264 2.06201L72.958 10.6108C74.2994 10.9877 75.0808 12.3807 74.7041 13.7222L72.9873 19.8364C72.6104 21.1778 71.2174 21.9592 69.876 21.5825L59.208 18.5854L56.6973 27.3228C56.3124 28.662 54.9144 29.4362 53.5752 29.0513L47.4717 27.2964C46.1328 26.9113 45.3595 25.5143 45.7441 24.1753L48.2354 15.5034L39.4443 13.0337C38.103 12.6567 37.3214 11.2638 37.6982 9.92236L39.415 3.80908Z" fill="#DB925E"/>
<path d="M39.415 3.80908L39.0102 3.69535L39.0102 3.69539L39.415 3.80908ZM42.5264 2.06201L42.6401 1.65717L42.64 1.65715L42.5264 2.06201ZM72.958 10.6108L73.0718 10.206L73.0717 10.206L72.958 10.6108ZM74.7041 13.7222L74.2993 13.6085L74.2992 13.6085L74.7041 13.7222ZM72.9873 19.8364L73.3921 19.9502L73.3922 19.9501L72.9873 19.8364ZM69.876 21.5825L69.7622 21.9874L69.7623 21.9874L69.876 21.5825ZM59.208 18.5854L59.3217 18.1806L58.9193 18.0675L58.8039 18.4693L59.208 18.5854ZM56.6973 27.3228L57.1014 27.4389L57.1014 27.4389L56.6973 27.3228ZM53.5752 29.0513L53.459 29.4554L53.459 29.4554L53.5752 29.0513ZM47.4717 27.2964L47.3554 27.7005L47.3555 27.7005L47.4717 27.2964ZM45.7441 24.1753L46.1483 24.2914V24.2914L45.7441 24.1753ZM48.2354 15.5034L48.6395 15.6195L48.7563 15.213L48.3491 15.0986L48.2354 15.5034ZM39.4443 13.0337L39.3306 13.4385L39.3306 13.4385L39.4443 13.0337ZM37.6982 9.92236L38.1031 10.0361L38.1031 10.0361L37.6982 9.92236ZM39.415 3.80908L39.8199 3.92281C40.1339 2.80496 41.2949 2.15305 42.4127 2.46687L42.5264 2.06201L42.64 1.65715C41.075 1.21778 39.4498 2.13043 39.0102 3.69535L39.415 3.80908ZM42.5264 2.06201L42.4126 2.46685L72.8443 11.0157L72.958 10.6108L73.0717 10.206L42.6401 1.65717L42.5264 2.06201ZM72.958 10.6108L72.8443 11.0157C73.9619 11.3297 74.6132 12.4905 74.2993 13.6085L74.7041 13.7222L75.109 13.8359C75.5484 12.271 74.6369 10.6457 73.0718 10.206L72.958 10.6108ZM74.7041 13.7222L74.2992 13.6085L72.5825 19.7227L72.9873 19.8364L73.3922 19.9501L75.109 13.8358L74.7041 13.7222ZM72.9873 19.8364L72.5825 19.7227C72.2684 20.8403 71.1077 21.4916 69.9897 21.1777L69.876 21.5825L69.7623 21.9874C71.3271 22.4268 72.9524 21.5153 73.3921 19.9502L72.9873 19.8364ZM69.876 21.5825L69.9897 21.1777L59.3217 18.1806L59.208 18.5854L59.0943 18.9903L69.7622 21.9874L69.876 21.5825ZM59.208 18.5854L58.8039 18.4693L56.2931 27.2066L56.6973 27.3228L57.1014 27.4389L59.6122 18.7016L59.208 18.5854ZM56.6973 27.3228L56.2931 27.2066C55.9723 28.3227 54.8073 28.9678 53.6913 28.6471L53.5752 29.0513L53.459 29.4554C55.0216 29.9045 56.6524 29.0012 57.1014 27.4389L56.6973 27.3228ZM53.5752 29.0513L53.6914 28.6471L47.5879 26.8922L47.4717 27.2964L47.3555 27.7005L53.459 29.4554L53.5752 29.0513ZM47.4717 27.2964L47.5879 26.8923C46.4722 26.5714 45.8278 25.4072 46.1483 24.2914L45.7441 24.1753L45.34 24.0592C44.8912 25.6214 45.7935 27.2513 47.3554 27.7005L47.4717 27.2964ZM45.7441 24.1753L46.1483 24.2914L48.6395 15.6195L48.2354 15.5034L47.8312 15.3873L45.34 24.0592L45.7441 24.1753ZM48.2354 15.5034L48.3491 15.0986L39.5581 12.6289L39.4443 13.0337L39.3306 13.4385L48.1216 15.9083L48.2354 15.5034ZM39.4443 13.0337L39.5581 12.6289C38.4404 12.3148 37.789 11.154 38.1031 10.0361L37.6982 9.92236L37.2934 9.80863C36.8538 11.3736 37.7655 12.9987 39.3306 13.4385L39.4443 13.0337ZM37.6982 9.92236L38.1031 10.0361L39.8199 3.92278L39.415 3.80908L39.0102 3.69539L37.2934 9.80867L37.6982 9.92236Z" fill="#462D1B" mask="url(#path-3-inside-1_103_461)"/>
<mask id="path-5-inside-2_103_461" fill="white">
<path d="M5.30469 43.032C7.36471 40.5165 11.0743 40.1478 13.5898 42.2078L23.085 49.9832C24.864 48.8572 27.0739 48.4129 29.2891 48.9167L57.3398 55.2976C59.5435 55.7989 61.3359 57.1448 62.4541 58.9158L63.1455 58.6335C64.8283 57.9448 66.6728 59.1824 66.6729 61.0007C66.6729 61.3983 66.7653 61.7907 66.9434 62.1462L72.8125 73.8679C74.84 77.917 72.9945 82.8351 68.8037 84.5505L66.3496 85.5554C62.3735 87.1826 57.8306 85.2785 56.2031 81.3025L55.2891 79.0701C54.2142 79.2739 53.0812 79.2677 51.9463 79.0095L23.8955 72.6277C21.8791 72.169 20.2084 71.0025 19.082 69.4509C18.7702 69.2723 18.5695 68.948 18.5381 68.5974C18.0881 67.7837 17.7754 66.8929 17.6221 65.9607L2.75 56.5935C-0.245571 54.7066 -0.909874 50.6217 1.33301 47.8826L5.30469 43.032Z"/>
</mask>
<path d="M5.30469 43.032C7.36471 40.5165 11.0743 40.1478 13.5898 42.2078L23.085 49.9832C24.864 48.8572 27.0739 48.4129 29.2891 48.9167L57.3398 55.2976C59.5435 55.7989 61.3359 57.1448 62.4541 58.9158L63.1455 58.6335C64.8283 57.9448 66.6728 59.1824 66.6729 61.0007C66.6729 61.3983 66.7653 61.7907 66.9434 62.1462L72.8125 73.8679C74.84 77.917 72.9945 82.8351 68.8037 84.5505L66.3496 85.5554C62.3735 87.1826 57.8306 85.2785 56.2031 81.3025L55.2891 79.0701C54.2142 79.2739 53.0812 79.2677 51.9463 79.0095L23.8955 72.6277C21.8791 72.169 20.2084 71.0025 19.082 69.4509C18.7702 69.2723 18.5695 68.948 18.5381 68.5974C18.0881 67.7837 17.7754 66.8929 17.6221 65.9607L2.75 56.5935C-0.245571 54.7066 -0.909874 50.6217 1.33301 47.8826L5.30469 43.032Z" fill="#DB925E"/>
<path d="M5.30469 43.032L4.97935 42.7656L4.97933 42.7656L5.30469 43.032ZM13.5898 42.2078L13.3234 42.5331L13.3234 42.5331L13.5898 42.2078ZM23.085 49.9832L22.8185 50.3085L23.0534 50.5008L23.3098 50.3385L23.085 49.9832ZM29.2891 48.9167L29.3823 48.5067L29.3823 48.5067L29.2891 48.9167ZM57.3398 55.2976L57.4331 54.8876L57.4331 54.8876L57.3398 55.2976ZM62.4541 58.9158L62.0985 59.1403L62.2867 59.4383L62.613 59.3051L62.4541 58.9158ZM63.1455 58.6335L63.3044 59.0229L63.3048 59.0227L63.1455 58.6335ZM66.6729 61.0007H67.0934V61.0007L66.6729 61.0007ZM66.9434 62.1462L67.3194 61.958V61.958L66.9434 62.1462ZM72.8125 73.8679L72.4365 74.0562V74.0562L72.8125 73.8679ZM68.8037 84.5505L68.6444 84.1614L68.6444 84.1614L68.8037 84.5505ZM66.3496 85.5554L66.5089 85.9446L66.509 85.9446L66.3496 85.5554ZM56.2031 81.3025L56.5923 81.1432L56.5923 81.1432L56.2031 81.3025ZM55.2891 79.0701L55.6782 78.9107L55.5481 78.5929L55.2107 78.6569L55.2891 79.0701ZM51.9463 79.0095L51.853 79.4196L51.853 79.4196L51.9463 79.0095ZM23.8955 72.6277L23.9888 72.2177L23.9888 72.2176L23.8955 72.6277ZM19.082 69.4509L19.4223 69.2039L19.3693 69.1309L19.2911 69.086L19.082 69.4509ZM18.5381 68.5974L18.9569 68.5599L18.949 68.4715L18.9061 68.3939L18.5381 68.5974ZM17.6221 65.9607L18.037 65.8924L18.0063 65.7057L17.8462 65.6049L17.6221 65.9607ZM2.75 56.5935L2.52588 56.9493L2.52589 56.9493L2.75 56.5935ZM1.33301 47.8826L1.65836 48.149L1.65837 48.149L1.33301 47.8826ZM5.30469 43.032L5.63002 43.2984C7.54286 40.9627 10.9875 40.6202 13.3234 42.5331L13.5898 42.2078L13.8563 41.8824C11.1611 39.6753 7.18656 40.0703 4.97935 42.7656L5.30469 43.032ZM13.5898 42.2078L13.3234 42.5331L22.8185 50.3085L23.085 49.9832L23.3514 49.6578L13.8563 41.8824L13.5898 42.2078ZM23.085 49.9832L23.3098 50.3385C24.9982 49.27 27.094 48.8487 29.1958 49.3268L29.2891 48.9167L29.3823 48.5067C27.0537 47.9771 24.7299 48.4444 22.8601 49.6278L23.085 49.9832ZM29.2891 48.9167L29.1958 49.3268L57.2466 55.7076L57.3398 55.2976L57.4331 54.8876L29.3823 48.5067L29.2891 48.9167ZM57.3398 55.2976L57.2466 55.7076C59.3372 56.1832 61.0373 57.4595 62.0985 59.1403L62.4541 58.9158L62.8097 58.6913C61.6345 56.8301 59.7497 55.4146 57.4331 54.8876L57.3398 55.2976ZM62.4541 58.9158L62.613 59.3051L63.3044 59.0229L63.1455 58.6335L62.9866 58.2442L62.2952 58.5264L62.4541 58.9158ZM63.1455 58.6335L63.3048 59.0227C64.7111 58.4471 66.2523 59.4815 66.2523 61.0007L66.6729 61.0007L67.0934 61.0007C67.0934 58.8834 64.9456 57.4424 62.9862 58.2444L63.1455 58.6335ZM66.6729 61.0007H66.2523C66.2523 61.4635 66.36 61.9204 66.5674 62.3345L66.9434 62.1462L67.3194 61.958C67.1707 61.6611 67.0934 61.3332 67.0934 61.0007H66.6729ZM66.9434 62.1462L66.5674 62.3345L72.4365 74.0562L72.8125 73.8679L73.1885 73.6796L67.3194 61.958L66.9434 62.1462ZM72.8125 73.8679L72.4365 74.0562C74.3544 77.8864 72.6087 82.5387 68.6444 84.1614L68.8037 84.5505L68.963 84.9397C73.3803 83.1315 75.3256 77.9476 73.1885 73.6796L72.8125 73.8679ZM68.8037 84.5505L68.6444 84.1614L66.1903 85.1663L66.3496 85.5554L66.509 85.9446L68.9631 84.9397L68.8037 84.5505ZM66.3496 85.5554L66.1903 85.1662C62.4291 86.7054 58.1318 84.9043 56.5923 81.1432L56.2031 81.3025L55.814 81.4618C57.5294 85.6528 62.3178 87.6597 66.5089 85.9446L66.3496 85.5554ZM56.2031 81.3025L56.5923 81.1432L55.6782 78.9107L55.2891 79.0701L54.8999 79.2294L55.814 81.4618L56.2031 81.3025ZM55.2891 79.0701L55.2107 78.6569C54.1909 78.8504 53.1163 78.8444 52.0396 78.5995L51.9463 79.0095L51.853 79.4196C53.046 79.6909 54.2376 79.6975 55.3674 79.4832L55.2891 79.0701ZM51.9463 79.0095L52.0396 78.5995L23.9888 72.2177L23.8955 72.6277L23.8022 73.0377L51.853 79.4196L51.9463 79.0095ZM23.8955 72.6277L23.9888 72.2176C22.0758 71.7825 20.4913 70.6763 19.4223 69.2039L19.082 69.4509L18.7417 69.698C19.9255 71.3286 21.6825 72.5555 23.8022 73.0377L23.8955 72.6277ZM19.082 69.4509L19.2911 69.086C19.1018 68.9776 18.9764 68.7775 18.9569 68.5599L18.5381 68.5974L18.1193 68.6349C18.1625 69.1184 18.4385 69.5669 18.873 69.8158L19.082 69.4509ZM18.5381 68.5974L18.9061 68.3939C18.4791 67.6218 18.1825 66.7766 18.037 65.8924L17.6221 65.9607L17.2071 66.029C17.3684 67.0091 17.6972 67.9457 18.1701 68.8009L18.5381 68.5974ZM17.6221 65.9607L17.8462 65.6049L2.97411 56.2377L2.75 56.5935L2.52589 56.9493L17.398 66.3165L17.6221 65.9607ZM2.75 56.5935L2.97412 56.2377C0.192549 54.4856 -0.424335 50.6925 1.65836 48.149L1.33301 47.8826L1.00765 47.6162C-1.39541 50.5509 -0.683692 54.9276 2.52588 56.9493L2.75 56.5935ZM1.33301 47.8826L1.65837 48.149L5.63005 43.2984L5.30469 43.032L4.97933 42.7656L1.00765 47.6162L1.33301 47.8826Z" fill="#462D1B" mask="url(#path-5-inside-2_103_461)"/>
<rect x="21.4523" y="47.3488" width="44.7469" height="23.8965" rx="7.98972" transform="rotate(12.816 21.4523 47.3488)" fill="#DB925E" stroke="#462D1B" stroke-width="0.420511"/>
<rect x="19.9565" y="46.7932" width="48.9498" height="9.90549" rx="1.8923" transform="rotate(12.816 19.9565 46.7932)" fill="#DB925E"/>
<rect x="18.1254" y="29.4054" width="7.86718" height="12.1273" rx="2.73332" transform="rotate(9.07811 18.1254 29.4054)" fill="#DB925E" stroke="#462D1B" stroke-width="0.420511"/>
<rect x="73.1934" y="43.8172" width="7.86718" height="12.1273" rx="2.73332" transform="rotate(16.0348 73.1934 43.8172)" fill="#DB925E" stroke="#462D1B" stroke-width="0.420511"/>
<rect x="25.7767" y="19.6409" width="53.811" height="34.5687" rx="8.41023" transform="rotate(12.816 25.7767 19.6409)" fill="#DB925E" stroke="#462D1B" stroke-width="0.420511"/>
<ellipse cx="35.3441" cy="40.2812" rx="5.44112" ry="7.83887" transform="rotate(16.1765 35.3441 40.2812)" fill="#BF7D4D" stroke="#462D1B" stroke-width="0.420511"/>
<ellipse cx="56.6614" cy="44.9982" rx="5.44112" ry="7.83887" transform="rotate(16.1765 56.6614 44.9982)" fill="#BF7D4D" stroke="#462D1B" stroke-width="0.420511"/>
<path d="M14.4381 45.5284C15.1703 43.9717 17.167 43.5116 18.5066 44.591C19.5673 45.4456 19.8092 46.9643 19.0665 48.1061L15.2384 53.992C14.8659 54.5647 14.4381 55.0994 13.9611 55.5884L8.56943 61.1153C7.60204 62.1069 6.03925 62.2005 4.96048 61.3313C3.62611 60.2561 3.62564 58.2234 4.95952 57.1477L6.57704 55.8432C6.76746 55.6896 6.94463 55.5203 7.10667 55.337L9.91275 52.163L13.108 48.1034C13.3044 47.8538 13.4718 47.5827 13.6069 47.2954L14.4381 45.5284Z" fill="#BF7D4D" stroke="#462D1B" stroke-width="0.420511"/>
<path d="M70.5127 72.2065C71.8673 71.1462 73.8573 71.6343 74.5676 73.2012C75.1299 74.4418 74.6622 75.9068 73.485 76.592L67.4169 80.1242C66.8265 80.4679 66.2038 80.7527 65.5577 80.9746L58.2551 83.4824C56.9449 83.9323 55.5073 83.3123 54.9353 82.0505C54.2279 80.4897 55.1426 78.6745 56.8179 78.3144L58.8496 77.8778C59.0887 77.8264 59.3232 77.755 59.5504 77.6643L63.4849 76.0935L68.1657 73.907C68.4534 73.7726 68.7249 73.6059 68.975 73.4102L70.5127 72.2065Z" fill="#BF7D4D" stroke="#462D1B" stroke-width="0.420511"/>
<path d="M61.3337 71.9127C62.9826 72.0927 64.1124 73.6615 63.7605 75.2825C63.4434 76.7434 62.0324 77.6957 60.5589 77.4434L39.5388 73.8435L17.2518 68.0349C15.7954 67.6553 14.8977 66.1945 15.2169 64.7237C15.5678 63.1074 17.2332 62.1435 18.8095 62.6443L28.3415 65.6729L38.6658 68.1295L51.403 70.8286L61.3337 71.9127Z" fill="#BF7D4D" stroke="#462D1B" stroke-width="0.420511"/>
</svg>
