<svg width="315" height="313" viewBox="0 0 315 313" fill="none" xmlns="http://www.w3.org/2000/svg">
<g clip-path="url(#clip0_251_573)">
<mask id="path-1-inside-1_251_573" fill="white">
<path d="M81.772 31.3726C82.0639 24.7519 87.6648 19.6771 94.2823 20.0372L241.227 28.0323C247.845 28.3924 252.973 34.0519 252.682 40.6728L251.356 70.7698C251.064 77.3907 245.463 82.4661 238.846 82.1062L187.4 79.3062L185.248 122.407C184.917 129.026 179.286 134.067 172.671 133.667L143.504 131.901C136.889 131.501 131.795 125.81 132.125 119.191L134.261 76.4152L91.9005 74.1101C85.2829 73.75 80.1545 68.0907 80.4462 61.4697L81.772 31.3726Z"/>
</mask>
<path d="M81.772 31.3726C82.0639 24.7519 87.6648 19.6771 94.2823 20.0372L241.227 28.0323C247.845 28.3924 252.973 34.0519 252.682 40.6728L251.356 70.7698C251.064 77.3907 245.463 82.4661 238.846 82.1062L187.4 79.3062L185.248 122.407C184.917 129.026 179.286 134.067 172.671 133.667L143.504 131.901C136.889 131.501 131.795 125.81 132.125 119.191L134.261 76.4152L91.9005 74.1101C85.2829 73.75 80.1545 68.0907 80.4462 61.4697L81.772 31.3726Z" fill="#DB925E"/>
<path d="M81.772 31.3726L79.7739 31.2845L79.7739 31.2846L81.772 31.3726ZM94.2823 20.0372L94.1736 22.0342L94.1736 22.0342L94.2823 20.0372ZM241.227 28.0323L241.336 26.0353L241.336 26.0353L241.227 28.0323ZM252.682 40.6728L254.68 40.7608L254.68 40.7607L252.682 40.6728ZM251.356 70.7698L253.354 70.8579L253.354 70.8578L251.356 70.7698ZM238.846 82.1062L238.737 84.1032L238.737 84.1032L238.846 82.1062ZM187.4 79.3062L187.509 77.3091L185.503 77.1999L185.402 79.2064L187.4 79.3062ZM185.248 122.407L187.245 122.506L187.245 122.506L185.248 122.407ZM172.671 133.667L172.55 135.663L172.55 135.663L172.671 133.667ZM143.504 131.901L143.383 133.897L143.383 133.897L143.504 131.901ZM132.125 119.191L134.123 119.291L134.123 119.291L132.125 119.191ZM134.261 76.4152L136.259 76.515L136.358 74.5264L134.37 74.4182L134.261 76.4152ZM91.9005 74.1101L92.0092 72.1131L92.0091 72.1131L91.9005 74.1101ZM80.4462 61.4697L82.4442 61.5577L82.4442 61.5577L80.4462 61.4697ZM81.772 31.3726L83.77 31.4607C84.0129 25.9516 88.6671 21.7346 94.1736 22.0342L94.2823 20.0372L94.391 18.0402C86.6626 17.6196 80.1149 23.5521 79.7739 31.2845L81.772 31.3726ZM94.2823 20.0372L94.1736 22.0342L241.119 30.0294L241.227 28.0323L241.336 26.0353L94.391 18.0402L94.2823 20.0372ZM241.227 28.0323L241.119 30.0294C246.641 30.3299 250.927 35.0593 250.683 40.5848L252.682 40.6728L254.68 40.7607C255.019 33.0445 249.048 26.4549 241.336 26.0353L241.227 28.0323ZM252.682 40.6728L250.683 40.5847L249.358 70.6818L251.356 70.7698L253.354 70.8578L254.68 40.7608L252.682 40.6728ZM251.356 70.7698L249.358 70.6818C249.115 76.1911 244.461 80.4086 238.954 80.1091L238.846 82.1062L238.737 84.1032C246.465 84.5236 253.013 78.5903 253.354 70.8579L251.356 70.7698ZM238.846 82.1062L238.954 80.1091L187.509 77.3091L187.4 79.3062L187.291 81.3032L238.737 84.1032L238.846 82.1062ZM187.4 79.3062L185.402 79.2064L183.25 122.307L185.248 122.407L187.245 122.506L189.397 79.4059L187.4 79.3062ZM185.248 122.407L183.25 122.307C182.975 127.814 178.296 132.004 172.792 131.671L172.671 133.667L172.55 135.663C180.276 136.131 186.859 130.237 187.245 122.506L185.248 122.407ZM172.671 133.667L172.792 131.671L143.625 129.905L143.504 131.901L143.383 133.897L172.55 135.663L172.671 133.667ZM143.504 131.901L143.625 129.905C138.104 129.57 133.847 124.815 134.123 119.291L132.125 119.191L130.128 119.092C129.743 126.806 135.674 133.431 143.383 133.897L143.504 131.901ZM132.125 119.191L134.123 119.291L136.259 76.515L134.261 76.4152L132.264 76.3155L130.128 119.092L132.125 119.191ZM134.261 76.4152L134.37 74.4182L92.0092 72.1131L91.9005 74.1101L91.7918 76.1072L134.153 78.4123L134.261 76.4152ZM91.9005 74.1101L92.0091 72.1131C86.4864 71.8126 82.2008 67.0832 82.4442 61.5577L80.4462 61.4697L78.4481 61.3817C78.1082 69.0981 84.0793 75.6875 91.7918 76.1072L91.9005 74.1101ZM80.4462 61.4697L82.4442 61.5577L83.77 31.4606L81.772 31.3726L79.7739 31.2846L78.4481 61.3817L80.4462 61.4697Z" fill="#462D1B" mask="url(#path-1-inside-1_251_573)"/>
<mask id="path-3-inside-2_251_573" fill="white">
<path d="M43.2677 272.501C49.4729 258.72 63.4356 249.234 79.5048 249.506L216.307 251.824C227.055 252.006 236.713 256.519 243.647 263.672L246.586 261.683C253.746 256.834 263.538 260.795 265.313 269.259C265.701 271.11 266.516 272.845 267.692 274.326L306.457 323.159C319.848 340.028 316.058 364.724 298.224 376.8L287.784 383.87C270.864 395.328 247.859 390.9 236.401 373.98L229.973 364.489C225.168 366.488 219.884 367.556 214.348 367.462L77.5457 365.144C69.9792 365.016 62.9541 362.739 57.0378 358.908L44.1219 373.131C32.9064 385.482 13.4468 385.347 2.40436 372.841L-10.9448 357.724C-21.1802 346.132 -20.0802 328.438 -8.48849 318.202L43.2677 272.501Z"/>
</mask>
<path d="M43.2677 272.501C49.4729 258.72 63.4356 249.234 79.5048 249.506L216.307 251.824C227.055 252.006 236.713 256.519 243.647 263.672L246.586 261.683C253.746 256.834 263.538 260.795 265.313 269.259C265.701 271.11 266.516 272.845 267.692 274.326L306.457 323.159C319.848 340.028 316.058 364.724 298.224 376.8L287.784 383.87C270.864 395.328 247.859 390.9 236.401 373.98L229.973 364.489C225.168 366.488 219.884 367.556 214.348 367.462L77.5457 365.144C69.9792 365.016 62.9541 362.739 57.0378 358.908L44.1219 373.131C32.9064 385.482 13.4468 385.347 2.40436 372.841L-10.9448 357.724C-21.1802 346.132 -20.0802 328.438 -8.48849 318.202L43.2677 272.501Z" fill="#DB925E"/>
<path d="M43.2677 272.501L44.5915 274L44.9144 273.715L45.0913 273.322L43.2677 272.501ZM79.5048 249.506L79.5387 247.507L79.5387 247.507L79.5048 249.506ZM216.307 251.824L216.341 249.824L216.341 249.824L216.307 251.824ZM243.647 263.672L242.211 265.064L243.379 266.269L244.768 265.328L243.647 263.672ZM246.586 261.683L247.707 263.339L247.707 263.339L246.586 261.683ZM265.313 269.259L267.27 268.848L267.27 268.848L265.313 269.259ZM267.692 274.326L269.258 273.082L269.258 273.082L267.692 274.326ZM306.457 323.159L304.891 324.403L304.891 324.403L306.457 323.159ZM298.224 376.8L297.103 375.144L297.103 375.144L298.224 376.8ZM287.784 383.87L288.906 385.526L288.906 385.526L287.784 383.87ZM236.401 373.98L238.057 372.859L238.057 372.859L236.401 373.98ZM229.973 364.489L231.629 363.368L230.713 362.015L229.205 362.643L229.973 364.489ZM214.348 367.462L214.314 369.462L214.314 369.462L214.348 367.462ZM77.5457 365.144L77.5118 367.144L77.5118 367.144L77.5457 365.144ZM57.0378 358.908L58.1249 357.229L56.6991 356.306L55.5571 357.563L57.0378 358.908ZM44.1219 373.131L45.6025 374.476L45.6025 374.476L44.1219 373.131ZM2.40436 372.841L3.90356 371.517L3.9035 371.517L2.40436 372.841ZM-10.9448 357.724L-12.4441 359.048L-12.444 359.048L-10.9448 357.724ZM-8.48849 318.202L-7.1647 319.701L-7.16468 319.701L-8.48849 318.202ZM43.2677 272.501L45.0913 273.322C50.9802 260.244 64.2289 251.248 79.471 251.506L79.5048 249.506L79.5387 247.507C62.6422 247.22 47.9656 257.197 41.444 271.68L43.2677 272.501ZM79.5048 249.506L79.4709 251.506L216.273 253.824L216.307 251.824L216.341 249.824L79.5387 247.507L79.5048 249.506ZM216.307 251.824L216.273 253.824C226.47 253.997 235.63 258.276 242.211 265.064L243.647 263.672L245.083 262.28C237.796 254.763 227.639 250.016 216.341 249.824L216.307 251.824ZM243.647 263.672L244.768 265.328L247.707 263.339L246.586 261.683L245.464 260.027L242.526 262.016L243.647 263.672ZM246.586 261.683L247.707 263.339C253.69 259.287 261.872 262.597 263.356 269.67L265.313 269.259L267.27 268.848C265.203 258.993 253.802 254.381 245.464 260.027L246.586 261.683ZM265.313 269.259L263.356 269.669C263.808 271.825 264.757 273.845 266.125 275.569L267.692 274.326L269.258 273.082C268.276 271.844 267.595 270.395 267.27 268.848L265.313 269.259ZM267.692 274.326L266.125 275.569L304.891 324.403L306.457 323.159L308.024 321.916L269.258 273.082L267.692 274.326ZM306.457 323.159L304.891 324.403C317.558 340.36 313.972 363.721 297.103 375.144L298.224 376.8L299.346 378.456C318.143 365.727 322.139 339.696 308.024 321.916L306.457 323.159ZM298.224 376.8L297.103 375.144L286.663 382.214L287.784 383.87L288.906 385.526L299.346 378.456L298.224 376.8ZM287.784 383.87L286.663 382.214C270.657 393.053 248.896 388.864 238.057 372.859L236.401 373.98L234.745 375.102C246.823 392.936 271.071 397.603 288.906 385.526L287.784 383.87ZM236.401 373.98L238.057 372.859L231.629 363.368L229.973 364.489L228.318 365.611L234.745 375.102L236.401 373.98ZM229.973 364.489L229.205 362.643C224.649 364.538 219.636 365.551 214.382 365.462L214.348 367.462L214.314 369.462C220.131 369.56 225.688 368.438 230.742 366.336L229.973 364.489ZM214.348 367.462L214.382 365.462L77.5796 363.145L77.5457 365.144L77.5118 367.144L214.314 369.462L214.348 367.462ZM77.5457 365.144L77.5796 363.145C70.3986 363.023 63.7366 360.863 58.1249 357.229L57.0378 358.908L55.9507 360.586C62.1715 364.615 69.5599 367.009 77.5118 367.144L77.5457 365.144ZM57.0378 358.908L55.5571 357.563L42.6412 371.787L44.1219 373.131L45.6025 374.476L58.5184 360.252L57.0378 358.908ZM44.1219 373.131L42.6412 371.787C32.2269 383.255 14.1573 383.13 3.90356 371.517L2.40436 372.841L0.905151 374.165C12.7363 387.564 33.5859 387.709 45.6025 374.476L44.1219 373.131ZM2.40436 372.841L3.9035 371.517L-9.4457 356.4L-10.9448 357.724L-12.444 359.048L0.905211 374.165L2.40436 372.841ZM-10.9448 357.724L-9.44564 356.4C-18.9499 345.636 -17.9285 329.206 -7.1647 319.701L-8.48849 318.202L-9.81227 316.703C-22.2319 327.67 -23.4106 346.628 -12.4441 359.048L-10.9448 357.724ZM-8.48849 318.202L-7.16468 319.701L44.5915 274L43.2677 272.501L41.9439 271.002L-9.81229 316.703L-8.48849 318.202Z" fill="#462D1B" mask="url(#path-3-inside-2_251_573)"/>
<rect x="41.4937" y="249.862" width="212.821" height="142.167" rx="38" transform="rotate(0.970758 41.4937 249.862)" fill="#DB925E" stroke="#462D1B" stroke-width="2"/>
<rect x="8.48805" y="169.585" width="37.4172" height="57.6787" rx="13" transform="rotate(-2.76713 8.48805 169.585)" fill="#DB925E" stroke="#462D1B" stroke-width="2"/>
<rect x="278.891" y="182.909" width="37.4172" height="57.6787" rx="13" transform="rotate(4.18953 278.891 182.909)" fill="#DB925E" stroke="#462D1B" stroke-width="2"/>
<rect x="34.5703" y="116.664" width="255.931" height="164.413" rx="40" transform="rotate(0.970758 34.5703 116.664)" fill="#DB925E" stroke="#462D1B" stroke-width="2"/>
<ellipse cx="96.2545" cy="170.366" rx="25.8786" ry="36.2233" transform="rotate(2.88057 96.2545 170.366)" fill="#BF7D4D" stroke="#462D1B" stroke-width="2"/>
<ellipse cx="200.034" cy="172.94" rx="25.8786" ry="37.2825" transform="rotate(2.88057 200.034 172.94)" fill="#BF7D4D" stroke="#462D1B" stroke-width="2"/>
</g>
<defs>
<clipPath id="clip0_251_573">
<rect width="315" height="313" fill="white"/>
</clipPath>
</defs>
</svg>
