<svg width="383" height="402" viewBox="0 0 383 402" fill="none" xmlns="http://www.w3.org/2000/svg">
<mask id="path-1-inside-1_63_128" fill="white">
<path d="M187.464 9.11511C189.257 2.73473 195.883 -0.984919 202.263 0.807495L346.996 41.4677C353.377 43.2601 357.096 49.8851 355.304 56.2655L347.135 85.3427C345.343 91.723 338.717 95.4425 332.337 93.6503L281.602 79.3973L269.659 120.951C267.829 127.321 261.181 131 254.812 129.17L225.783 120.827C219.414 118.996 215.735 112.349 217.566 105.979L229.417 64.7372L187.603 52.9911C181.223 51.1986 177.504 44.5735 179.296 38.1932L187.464 9.11511Z"/>
</mask>
<path d="M187.464 9.11511C189.257 2.73473 195.883 -0.984919 202.263 0.807495L346.996 41.4677C353.377 43.2601 357.096 49.8851 355.304 56.2655L347.135 85.3427C345.343 91.723 338.717 95.4425 332.337 93.6503L281.602 79.3973L269.659 120.951C267.829 127.321 261.181 131 254.812 129.17L225.783 120.827C219.414 118.996 215.735 112.349 217.566 105.979L229.417 64.7372L187.603 52.9911C181.223 51.1986 177.504 44.5735 179.296 38.1932L187.464 9.11511Z" fill="#DB925E"/>
<path d="M187.464 9.11511L185.539 8.57419L185.539 8.57425L187.464 9.11511ZM202.263 0.807495L202.804 -1.11797L202.804 -1.11797L202.263 0.807495ZM346.996 41.4677L347.537 39.5422L347.537 39.5422L346.996 41.4677ZM355.304 56.2655L357.229 56.8064V56.8064L355.304 56.2655ZM347.135 85.3427L345.21 84.8017V84.8017L347.135 85.3427ZM332.337 93.6503L331.796 95.5757L331.796 95.5758L332.337 93.6503ZM281.602 79.3973L282.143 77.4719L280.229 76.9342L279.68 78.8449L281.602 79.3973ZM269.659 120.951L271.582 121.503V121.503L269.659 120.951ZM254.812 129.17L254.259 131.092L254.812 129.17ZM225.783 120.827L225.231 122.749L225.231 122.749L225.783 120.827ZM217.566 105.979L219.488 106.532L219.488 106.532L217.566 105.979ZM229.417 64.7372L231.339 65.2896L231.895 63.3558L229.958 62.8117L229.417 64.7372ZM187.603 52.9911L187.062 54.9165L187.062 54.9166L187.603 52.9911ZM179.296 38.1932L181.222 38.7341L181.222 38.7341L179.296 38.1932ZM187.464 9.11511L189.39 9.65604C190.883 4.33904 196.405 1.23928 201.722 2.73296L202.263 0.807495L202.804 -1.11797C195.36 -3.20912 187.63 1.13042 185.539 8.57419L187.464 9.11511ZM202.263 0.807495L201.722 2.73296L346.455 43.3931L346.996 41.4677L347.537 39.5422L202.804 -1.11797L202.263 0.807495ZM346.996 41.4677L346.455 43.3931C351.772 44.8869 354.872 50.4078 353.378 55.7246L355.304 56.2655L357.229 56.8064C359.321 49.3625 354.981 41.6334 347.537 39.5422L346.996 41.4677ZM355.304 56.2655L353.378 55.7246L345.21 84.8017L347.135 85.3427L349.06 85.8836L357.229 56.8064L355.304 56.2655ZM347.135 85.3427L345.21 84.8017C343.716 90.1187 338.195 93.2183 332.878 91.7248L332.337 93.6503L331.796 95.5758C339.24 97.6667 346.969 93.3272 349.06 85.8836L347.135 85.3427ZM332.337 93.6503L332.878 91.7248L282.143 77.4719L281.602 79.3973L281.061 81.3228L331.796 95.5757L332.337 93.6503ZM281.602 79.3973L279.68 78.8449L267.737 120.399L269.659 120.951L271.582 121.503L283.524 79.9498L281.602 79.3973ZM269.659 120.951L267.737 120.399C266.212 125.707 260.672 128.773 255.364 127.248L254.812 129.17L254.259 131.092C261.691 133.228 269.446 128.935 271.582 121.503L269.659 120.951ZM254.812 129.17L255.364 127.248L226.336 118.905L225.783 120.827L225.231 122.749L254.259 131.092L254.812 129.17ZM225.783 120.827L226.336 118.905C221.028 117.379 217.962 111.84 219.488 106.532L217.566 105.979L215.643 105.427C213.508 112.858 217.8 120.613 225.231 122.749L225.783 120.827ZM217.566 105.979L219.488 106.532L231.339 65.2896L229.417 64.7372L227.495 64.1848L215.643 105.427L217.566 105.979ZM229.417 64.7372L229.958 62.8117L188.144 51.0656L187.603 52.9911L187.062 54.9166L228.876 66.6627L229.417 64.7372ZM187.603 52.9911L188.144 51.0656C182.827 49.5719 179.728 44.0511 181.222 38.7341L179.296 38.1932L177.371 37.6524C175.28 45.0959 179.618 52.8253 187.062 54.9165L187.603 52.9911ZM179.296 38.1932L181.222 38.7341L189.39 9.65597L187.464 9.11511L185.539 8.57425L177.371 37.6524L179.296 38.1932Z" fill="#462D1B" mask="url(#path-1-inside-1_63_128)"/>
<mask id="path-3-inside-2_63_128" fill="white">
<path d="M25.2299 195.663C35.0275 183.699 52.669 181.943 64.6332 191.74L109.797 228.726C118.259 223.37 128.769 221.254 139.305 223.651L272.717 254.001C283.199 256.386 291.725 262.785 297.043 271.209L300.328 269.865C308.332 266.59 317.102 272.476 317.102 281.124C317.102 283.015 317.542 284.881 318.389 286.571L346.306 342.322C355.949 361.58 347.17 384.972 327.238 393.131L315.568 397.907C296.656 405.648 275.051 396.592 267.31 377.681L262.967 367.072C257.854 368.043 252.462 368.003 247.063 366.775L113.651 336.424C104.067 334.244 96.118 328.706 90.7611 321.333C89.2682 320.483 88.3083 318.921 88.1615 317.245C86.0244 313.378 84.5366 309.143 83.808 304.713L13.0795 260.162C-1.16816 251.188 -4.32838 231.757 6.34021 218.73L25.2299 195.663Z"/>
</mask>
<path d="M25.2299 195.663C35.0275 183.699 52.669 181.943 64.6332 191.74L109.797 228.726C118.259 223.37 128.769 221.254 139.305 223.651L272.717 254.001C283.199 256.386 291.725 262.785 297.043 271.209L300.328 269.865C308.332 266.59 317.102 272.476 317.102 281.124C317.102 283.015 317.542 284.881 318.389 286.571L346.306 342.322C355.949 361.58 347.17 384.972 327.238 393.131L315.568 397.907C296.656 405.648 275.051 396.592 267.31 377.681L262.967 367.072C257.854 368.043 252.462 368.003 247.063 366.775L113.651 336.424C104.067 334.244 96.118 328.706 90.7611 321.333C89.2682 320.483 88.3083 318.921 88.1615 317.245C86.0244 313.378 84.5366 309.143 83.808 304.713L13.0795 260.162C-1.16816 251.188 -4.32838 231.757 6.34021 218.73L25.2299 195.663Z" fill="#DB925E"/>
<path d="M25.2299 195.663L26.7772 196.93L26.7772 196.93L25.2299 195.663ZM64.6332 191.74L63.366 193.288L63.366 193.288L64.6332 191.74ZM109.797 228.726L108.53 230.273L109.647 231.188L110.867 230.416L109.797 228.726ZM139.305 223.651L139.749 221.7L139.749 221.7L139.305 223.651ZM272.717 254.001L272.273 255.951H272.274L272.717 254.001ZM297.043 271.209L295.352 272.277L296.248 273.695L297.801 273.06L297.043 271.209ZM300.328 269.865L301.086 271.717L301.086 271.716L300.328 269.865ZM317.102 281.124H319.102V281.124L317.102 281.124ZM318.389 286.571L316.601 287.467V287.467L318.389 286.571ZM346.306 342.322L348.094 341.427V341.427L346.306 342.322ZM327.238 393.131L327.995 394.982L327.995 394.982L327.238 393.131ZM315.568 397.907L314.81 396.056L314.81 396.056L315.568 397.907ZM267.31 377.681L269.161 376.923L269.161 376.923L267.31 377.681ZM262.967 367.072L264.818 366.315L264.199 364.803L262.594 365.108L262.967 367.072ZM247.063 366.775L246.619 368.725L246.619 368.725L247.063 366.775ZM113.651 336.424L114.094 334.474L114.094 334.474L113.651 336.424ZM90.7611 321.333L92.3791 320.158L92.1255 319.809L91.7506 319.595L90.7611 321.333ZM88.1615 317.245L90.1539 317.071L90.1169 316.649L89.912 316.278L88.1615 317.245ZM83.808 304.713L85.7815 304.388L85.6354 303.5L84.8739 303.021L83.808 304.713ZM13.0795 260.162L12.0135 261.855L12.0135 261.855L13.0795 260.162ZM6.34021 218.73L4.79286 217.463L4.79285 217.463L6.34021 218.73ZM25.2299 195.663L26.7772 196.93C35.875 185.821 52.2565 184.19 63.366 193.288L64.6332 191.74L65.9003 190.193C53.0816 179.696 34.18 181.577 23.6825 194.396L25.2299 195.663ZM64.6332 191.74L63.366 193.288L108.53 230.273L109.797 228.726L111.064 227.178L65.9003 190.193L64.6332 191.74ZM109.797 228.726L110.867 230.416C118.897 225.333 128.865 223.327 138.861 225.601L139.305 223.651L139.749 221.7C128.673 219.181 117.621 221.408 108.728 227.036L109.797 228.726ZM139.305 223.651L138.861 225.601L272.273 255.951L272.717 254.001L273.161 252.051L139.749 221.7L139.305 223.651ZM272.717 254.001L272.274 255.951C282.218 258.214 290.305 264.282 295.352 272.277L297.043 271.209L298.734 270.141C293.145 261.288 284.179 254.558 273.161 252.051L272.717 254.001ZM297.043 271.209L297.801 273.06L301.086 271.717L300.328 269.865L299.571 268.014L296.286 269.358L297.043 271.209ZM300.328 269.865L301.086 271.716C307.774 268.979 315.102 273.898 315.102 281.124L317.102 281.124L319.102 281.124C319.102 271.054 308.89 264.2 299.571 268.014L300.328 269.865ZM317.102 281.124H315.102C315.102 283.326 315.615 285.498 316.601 287.467L318.389 286.571L320.177 285.676C319.47 284.263 319.102 282.705 319.102 281.124H317.102ZM318.389 286.571L316.601 287.467L344.518 343.218L346.306 342.322L348.094 341.427L320.177 285.676L318.389 286.571ZM346.306 342.322L344.518 343.218C353.639 361.435 345.335 383.563 326.48 391.28L327.238 393.131L327.995 394.982C349.005 386.382 358.258 361.726 348.094 341.427L346.306 342.322ZM327.238 393.131L326.48 391.28L314.81 396.056L315.568 397.907L316.325 399.758L327.995 394.982L327.238 393.131ZM315.568 397.907L314.81 396.056C296.921 403.379 276.483 394.812 269.161 376.923L267.31 377.681L265.459 378.438C273.618 398.372 296.392 407.917 316.325 399.758L315.568 397.907ZM267.31 377.681L269.161 376.923L264.818 366.315L262.967 367.072L261.116 367.83L265.459 378.439L267.31 377.681ZM262.967 367.072L262.594 365.108C257.745 366.028 252.632 365.99 247.507 364.824L247.063 366.775L246.619 368.725C252.292 370.015 257.962 370.058 263.34 369.037L262.967 367.072ZM247.063 366.775L247.507 364.824L114.094 334.474L113.651 336.424L113.207 338.374L246.619 368.725L247.063 366.775ZM113.651 336.424L114.094 334.474C105 332.405 97.4623 327.153 92.3791 320.158L90.7611 321.333L89.1431 322.509C94.7738 330.258 103.133 336.082 113.207 338.374L113.651 336.424ZM90.7611 321.333L91.7506 319.595C90.8496 319.082 90.2455 318.117 90.1539 317.071L88.1615 317.245L86.1691 317.42C86.3711 319.725 87.6867 321.884 89.7716 323.071L90.7611 321.333ZM88.1615 317.245L89.912 316.278C87.8837 312.607 86.4724 308.59 85.7815 304.388L83.808 304.713L81.8345 305.038C82.6008 309.697 84.1651 314.148 86.411 318.213L88.1615 317.245ZM83.808 304.713L84.8739 303.021L14.1454 258.47L13.0795 260.162L12.0135 261.855L82.7421 306.405L83.808 304.713ZM13.0795 260.162L14.1454 258.47C0.915537 250.137 -2.01902 232.094 7.88757 219.997L6.34021 218.73L4.79285 217.463C-6.63774 231.421 -3.25185 252.239 12.0135 261.855L13.0795 260.162ZM6.34021 218.73L7.88756 219.997L26.7772 196.93L25.2299 195.663L23.6825 194.396L4.79286 217.463L6.34021 218.73Z" fill="#462D1B" mask="url(#path-3-inside-2_63_128)"/>
<rect x="102.03" y="216.197" width="212.821" height="113.655" rx="38" transform="rotate(12.816 102.03 216.197)" fill="#DB925E" stroke="#462D1B" stroke-width="2"/>
<rect x="94.9137" y="213.553" width="232.811" height="47.1116" rx="9" transform="rotate(12.816 94.9137 213.553)" fill="#DB925E"/>
<rect x="86.2057" y="130.855" width="37.4172" height="57.6787" rx="13" transform="rotate(9.07811 86.2057 130.855)" fill="#DB925E" stroke="#462D1B" stroke-width="2"/>
<rect x="348.115" y="199.4" width="37.4172" height="57.6787" rx="13" transform="rotate(16.0348 348.115 199.4)" fill="#DB925E" stroke="#462D1B" stroke-width="2"/>
<rect x="122.596" y="84.4138" width="255.931" height="164.413" rx="40" transform="rotate(12.816 122.596 84.4138)" fill="#DB925E" stroke="#462D1B" stroke-width="2"/>
<path d="M68.6701 207.539C72.1527 200.135 81.649 197.947 88.0203 203.081C93.0651 207.145 94.2156 214.368 90.6834 219.799L72.4765 247.793C70.705 250.517 68.6703 253.06 66.4015 255.386L40.7582 281.672C36.1571 286.389 28.7243 286.833 23.5936 282.7C17.2472 277.586 17.2449 267.918 23.589 262.802L31.2821 256.598C32.1878 255.867 33.0304 255.062 33.8011 254.19L47.1471 239.094L62.3439 219.786C63.278 218.599 64.0742 217.31 64.7171 215.943L68.6701 207.539Z" fill="#BF7D4D" stroke="#462D1B" stroke-width="2"/>
<path d="M342.298 345.683C349.183 341.261 358.39 344.454 361.06 352.188C363.174 358.312 360.311 365.042 354.433 367.766L324.134 381.807C321.187 383.173 318.112 384.247 314.954 385.011L279.263 393.655C272.859 395.206 266.326 391.633 264.176 385.405C261.516 377.701 266.651 369.51 274.744 368.546L284.558 367.378C285.713 367.24 286.855 367.006 287.971 366.677L307.298 360.979L330.432 352.697C331.854 352.188 333.213 351.519 334.484 350.702L342.298 345.683Z" fill="#BF7D4D" stroke="#462D1B" stroke-width="2"/>
<path d="M291.715 333.024C299.558 333.88 304.931 341.342 303.257 349.051C301.749 355.999 295.038 360.529 288.03 359.329L188.056 342.207L82.0566 314.581C75.1297 312.776 70.86 305.828 72.3786 298.832C74.0473 291.145 81.9681 286.561 89.4651 288.943L134.801 303.347L183.904 315.031L244.483 327.868L291.715 333.024Z" fill="#BF7D4D" stroke="#462D1B" stroke-width="2"/>
<path d="M135 182.103L147.125 180.854C155.013 180.042 162.983 180.649 170.659 182.644C180.149 185.112 188.976 189.65 196.506 195.931L199.82 198.696" stroke="#462D1B" stroke-width="7"/>
<path d="M244 205.145L256.096 203.64C263.965 202.66 271.947 203.097 279.662 204.93C289.203 207.196 298.124 211.545 305.786 217.666L309.158 220.36" stroke="#462D1B" stroke-width="7"/>
</svg>
