<svg width="383" height="327" viewBox="0 0 383 327" fill="none" xmlns="http://www.w3.org/2000/svg">
<g clip-path="url(#clip0_245_249)">
<mask id="path-1-inside-1_245_249" fill="white">
<path d="M187.464 8.75781C189.256 2.37743 195.882 -1.34222 202.263 0.450195L346.996 41.1104C353.376 42.9028 357.096 49.5278 355.304 55.9082L347.135 84.9854C345.342 91.3657 338.717 95.0852 332.337 93.293L281.602 79.04L269.659 120.594C267.829 126.963 261.181 130.643 254.812 128.812L225.783 120.47C219.414 118.639 215.735 111.992 217.565 105.622L229.417 64.3799L187.603 52.6338C181.222 50.8413 177.504 44.2162 179.296 37.8359L187.464 8.75781Z"/>
</mask>
<path d="M187.464 8.75781C189.256 2.37743 195.882 -1.34222 202.263 0.450195L346.996 41.1104C353.376 42.9028 357.096 49.5278 355.304 55.9082L347.135 84.9854C345.342 91.3657 338.717 95.0852 332.337 93.293L281.602 79.04L269.659 120.594C267.829 126.963 261.181 130.643 254.812 128.812L225.783 120.47C219.414 118.639 215.735 111.992 217.565 105.622L229.417 64.3799L187.603 52.6338C181.222 50.8413 177.504 44.2162 179.296 37.8359L187.464 8.75781Z" fill="#DB925E"/>
<path d="M187.464 8.75781L185.538 8.21689L185.538 8.21695L187.464 8.75781ZM202.263 0.450195L202.804 -1.47527L202.804 -1.47527L202.263 0.450195ZM346.996 41.1104L347.537 39.1849L347.537 39.1849L346.996 41.1104ZM355.304 55.9082L357.229 56.4491L357.229 56.4491L355.304 55.9082ZM347.135 84.9854L345.209 84.4444L345.209 84.4444L347.135 84.9854ZM332.337 93.293L331.796 95.2184L331.796 95.2184L332.337 93.293ZM281.602 79.04L282.142 77.1146L280.229 76.5769L279.679 78.4876L281.602 79.04ZM269.659 120.594L271.581 121.146L271.581 121.146L269.659 120.594ZM254.812 128.812L254.259 130.735L254.259 130.735L254.812 128.812ZM225.783 120.47L225.231 122.392L225.231 122.392L225.783 120.47ZM217.565 105.622L219.488 106.175L219.488 106.174L217.565 105.622ZM229.417 64.3799L231.339 64.9323L231.895 62.9985L229.958 62.4544L229.417 64.3799ZM187.603 52.6338L187.062 54.5592L187.062 54.5593L187.603 52.6338ZM179.296 37.8359L181.221 38.3768L181.221 38.3768L179.296 37.8359ZM187.464 8.75781L189.389 9.29874C190.883 3.98174 196.405 0.881985 201.722 2.37566L202.263 0.450195L202.804 -1.47527C195.36 -3.56642 187.63 0.773121 185.538 8.21689L187.464 8.75781ZM202.263 0.450195L201.722 2.37566L346.455 43.0358L346.996 41.1104L347.537 39.1849L202.804 -1.47527L202.263 0.450195ZM346.996 41.1104L346.455 43.0358C351.772 44.5296 354.872 50.0505 353.378 55.3673L355.304 55.9082L357.229 56.4491C359.32 49.0052 354.981 41.2761 347.537 39.1849L346.996 41.1104ZM355.304 55.9082L353.378 55.3673L345.209 84.4444L347.135 84.9854L349.06 85.5263L357.229 56.4491L355.304 55.9082ZM347.135 84.9854L345.209 84.4444C343.716 89.7614 338.195 92.861 332.878 91.3675L332.337 93.293L331.796 95.2184C339.24 97.3094 346.969 92.9699 349.06 85.5263L347.135 84.9854ZM332.337 93.293L332.878 91.3675L282.142 77.1146L281.602 79.04L281.061 80.9655L331.796 95.2184L332.337 93.293ZM281.602 79.04L279.679 78.4876L267.737 120.041L269.659 120.594L271.581 121.146L283.524 79.5925L281.602 79.04ZM269.659 120.594L267.737 120.041C266.211 125.349 260.672 128.416 255.364 126.89L254.812 128.812L254.259 130.735C261.69 132.87 269.446 128.577 271.581 121.146L269.659 120.594ZM254.812 128.812L255.364 126.89L226.336 118.548L225.783 120.47L225.231 122.392L254.259 130.735L254.812 128.812ZM225.783 120.47L226.336 118.548C221.028 117.022 217.962 111.483 219.488 106.175L217.565 105.622L215.643 105.07C213.508 112.501 217.8 120.256 225.231 122.392L225.783 120.47ZM217.565 105.622L219.488 106.174L231.339 64.9323L229.417 64.3799L227.495 63.8275L215.643 105.07L217.565 105.622ZM229.417 64.3799L229.958 62.4544L188.143 50.7083L187.603 52.6338L187.062 54.5593L228.876 66.3054L229.417 64.3799ZM187.603 52.6338L188.143 50.7083C182.827 49.2146 179.728 43.6938 181.221 38.3768L179.296 37.8359L177.37 37.2951C175.28 44.7386 179.618 52.468 187.062 54.5592L187.603 52.6338ZM179.296 37.8359L181.221 38.3768L189.389 9.29867L187.464 8.75781L185.538 8.21695L177.37 37.2951L179.296 37.8359Z" fill="#462D1B" mask="url(#path-1-inside-1_245_249)"/>
<mask id="path-3-inside-2_245_249" fill="white">
<path d="M25.2295 195.306C35.0271 183.342 52.6687 181.585 64.6328 191.383L109.797 228.368C118.259 223.013 128.769 220.896 139.305 223.293L272.717 253.644C283.198 256.028 291.725 262.428 297.043 270.852L300.328 269.508C308.332 266.233 317.101 272.119 317.102 280.767C317.102 282.658 317.542 284.523 318.389 286.214L346.306 341.965C355.949 361.223 347.169 384.615 327.237 392.774L315.567 397.55C296.656 405.291 275.05 396.235 267.31 377.324L262.967 366.715C257.853 367.686 252.462 367.646 247.062 366.417L113.65 336.067C104.066 333.886 96.1177 328.348 90.7607 320.976C89.2678 320.126 88.3079 318.563 88.1611 316.888C86.024 313.02 84.5362 308.786 83.8076 304.356L13.0791 259.805C-1.16852 250.83 -4.32875 231.4 6.33984 218.372L25.2295 195.306Z"/>
</mask>
<path d="M25.2295 195.306C35.0271 183.342 52.6687 181.585 64.6328 191.383L109.797 228.368C118.259 223.013 128.769 220.896 139.305 223.293L272.717 253.644C283.198 256.028 291.725 262.428 297.043 270.852L300.328 269.508C308.332 266.233 317.101 272.119 317.102 280.767C317.102 282.658 317.542 284.523 318.389 286.214L346.306 341.965C355.949 361.223 347.169 384.615 327.237 392.774L315.567 397.55C296.656 405.291 275.05 396.235 267.31 377.324L262.967 366.715C257.853 367.686 252.462 367.646 247.062 366.417L113.65 336.067C104.066 333.886 96.1177 328.348 90.7607 320.976C89.2678 320.126 88.3079 318.563 88.1611 316.888C86.024 313.02 84.5362 308.786 83.8076 304.356L13.0791 259.805C-1.16852 250.83 -4.32875 231.4 6.33984 218.372L25.2295 195.306Z" fill="#DB925E"/>
<path d="M25.2295 195.306L26.7768 196.573L26.7768 196.573L25.2295 195.306ZM64.6328 191.383L63.3657 192.93L63.3657 192.93L64.6328 191.383ZM109.797 228.368L108.53 229.916L109.647 230.83L110.866 230.058L109.797 228.368ZM139.305 223.293L139.748 221.343L139.748 221.343L139.305 223.293ZM272.717 253.644L272.273 255.594L272.273 255.594L272.717 253.644ZM297.043 270.852L295.352 271.92L296.247 273.338L297.8 272.703L297.043 270.852ZM300.328 269.508L301.085 271.359L301.086 271.359L300.328 269.508ZM317.102 280.767L319.102 280.767L319.102 280.767L317.102 280.767ZM318.389 286.214L316.6 287.11L316.6 287.11L318.389 286.214ZM346.306 341.965L348.094 341.07L348.094 341.07L346.306 341.965ZM327.237 392.774L327.995 394.625L327.995 394.625L327.237 392.774ZM315.567 397.55L314.81 395.699L314.81 395.699L315.567 397.55ZM267.31 377.324L269.161 376.566L269.16 376.566L267.31 377.324ZM262.967 366.715L264.818 365.957L264.199 364.446L262.594 364.75L262.967 366.715ZM247.062 366.417L246.619 368.367L246.619 368.367L247.062 366.417ZM113.65 336.067L114.094 334.117L114.094 334.117L113.65 336.067ZM90.7607 320.976L92.3787 319.8L92.1251 319.451L91.7502 319.238L90.7607 320.976ZM88.1611 316.888L90.1535 316.713L90.1165 316.291L89.9117 315.921L88.1611 316.888ZM83.8076 304.356L85.7811 304.031L85.635 303.143L84.8736 302.664L83.8076 304.356ZM13.0791 259.805L12.0131 261.497L12.0132 261.497L13.0791 259.805ZM6.33984 218.372L4.79249 217.105L4.79249 217.105L6.33984 218.372ZM25.2295 195.306L26.7768 196.573C35.8747 185.464 52.2561 183.833 63.3657 192.93L64.6328 191.383L65.9 189.836C53.0813 179.338 34.1796 181.22 23.6821 194.039L25.2295 195.306ZM64.6328 191.383L63.3657 192.93L108.53 229.916L109.797 228.368L111.064 226.821L65.9 189.836L64.6328 191.383ZM109.797 228.368L110.866 230.058C118.897 224.976 128.865 222.969 138.861 225.243L139.305 223.293L139.748 221.343C128.672 218.823 117.62 221.05 108.727 226.678L109.797 228.368ZM139.305 223.293L138.861 225.243L272.273 255.594L272.717 253.644L273.16 251.694L139.748 221.343L139.305 223.293ZM272.717 253.644L272.273 255.594C282.218 257.856 290.305 263.925 295.352 271.92L297.043 270.852L298.734 269.784C293.145 260.931 284.179 254.2 273.16 251.694L272.717 253.644ZM297.043 270.852L297.8 272.703L301.085 271.359L300.328 269.508L299.571 267.657L296.286 269.001L297.043 270.852ZM300.328 269.508L301.086 271.359C307.773 268.622 315.101 273.541 315.102 280.767L317.102 280.767L319.102 280.767C319.101 270.697 308.89 263.843 299.571 267.657L300.328 269.508ZM317.102 280.767L315.102 280.767C315.102 282.968 315.614 285.14 316.6 287.11L318.389 286.214L320.177 285.319C319.47 283.906 319.102 282.347 319.102 280.767L317.102 280.767ZM318.389 286.214L316.6 287.11L344.517 342.861L346.306 341.965L348.094 341.07L320.177 285.319L318.389 286.214ZM346.306 341.965L344.517 342.861C353.639 361.078 345.334 383.205 326.48 390.923L327.237 392.774L327.995 394.625C349.005 386.025 358.258 361.369 348.094 341.07L346.306 341.965ZM327.237 392.774L326.48 390.923L314.81 395.699L315.567 397.55L316.325 399.401L327.995 394.625L327.237 392.774ZM315.567 397.55L314.81 395.699C296.921 403.021 276.483 394.455 269.161 376.566L267.31 377.324L265.459 378.081C273.618 398.015 296.391 407.56 316.325 399.401L315.567 397.55ZM267.31 377.324L269.16 376.566L264.818 365.957L262.967 366.715L261.116 367.473L265.459 378.081L267.31 377.324ZM262.967 366.715L262.594 364.75C257.745 365.67 252.631 365.633 247.506 364.467L247.062 366.417L246.619 368.367C252.292 369.658 257.962 369.701 263.34 368.68L262.967 366.715ZM247.062 366.417L247.506 364.467L114.094 334.117L113.65 336.067L113.207 338.017L246.619 368.367L247.062 366.417ZM113.65 336.067L114.094 334.117C105 332.048 97.4619 326.796 92.3787 319.8L90.7607 320.976L89.1428 322.152C94.7734 329.901 103.132 335.725 113.207 338.017L113.65 336.067ZM90.7607 320.976L91.7502 319.238C90.8493 318.725 90.2451 317.759 90.1535 316.713L88.1611 316.888L86.1688 317.063C86.3707 319.367 87.6864 321.527 89.7712 322.714L90.7607 320.976ZM88.1611 316.888L89.9117 315.921C87.8833 312.25 86.4721 308.232 85.7811 304.031L83.8076 304.356L81.8341 304.68C82.6004 309.339 84.1647 313.791 86.4106 317.855L88.1611 316.888ZM83.8076 304.356L84.8736 302.664L14.145 258.113L13.0791 259.805L12.0132 261.497L82.7417 306.048L83.8076 304.356ZM13.0791 259.805L14.1451 258.113C0.915171 249.779 -2.01939 231.737 7.8872 219.64L6.33984 218.372L4.79249 217.105C-6.63811 231.063 -3.25222 251.882 12.0131 261.497L13.0791 259.805ZM6.33984 218.372L7.88719 219.64L26.7768 196.573L25.2295 195.306L23.6821 194.039L4.79249 217.105L6.33984 218.372Z" fill="#462D1B" mask="url(#path-3-inside-2_245_249)"/>
<rect x="102.03" y="215.84" width="212.821" height="113.655" rx="38" transform="rotate(12.816 102.03 215.84)" fill="#DB925E" stroke="#462D1B" stroke-width="2"/>
<rect x="94.9131" y="213.195" width="232.811" height="47.1116" rx="9" transform="rotate(12.816 94.9131 213.195)" fill="#DB925E"/>
<rect x="86.2055" y="130.497" width="37.4172" height="57.6787" rx="13" transform="rotate(9.07811 86.2055 130.497)" fill="#DB925E" stroke="#462D1B" stroke-width="2"/>
<rect x="348.115" y="199.042" width="37.4172" height="57.6787" rx="13" transform="rotate(16.0348 348.115 199.042)" fill="#DB925E" stroke="#462D1B" stroke-width="2"/>
<rect x="122.595" y="84.0565" width="255.931" height="164.413" rx="40" transform="rotate(12.816 122.595 84.0565)" fill="#DB925E" stroke="#462D1B" stroke-width="2"/>
<path d="M68.67 207.182C72.1526 199.778 81.6489 197.59 88.0202 202.723C93.065 206.788 94.2155 214.011 90.6833 219.442L72.4764 247.436C70.7049 250.16 68.6702 252.703 66.4014 255.028L40.758 281.315C36.157 286.031 28.7242 286.476 23.5935 282.342C17.247 277.229 17.2448 267.561 23.5889 262.445L31.282 256.24C32.1877 255.51 33.0303 254.705 33.801 253.833L47.147 238.737L62.3438 219.429C63.2779 218.242 64.0741 216.953 64.717 215.586L68.67 207.182Z" fill="#BF7D4D" stroke="#462D1B" stroke-width="2"/>
<path d="M291.715 332.667C299.557 333.523 304.931 340.984 303.257 348.694C301.749 355.642 295.038 360.171 288.03 358.971L188.056 341.85L82.0564 314.224C75.1295 312.418 70.8597 305.471 72.3783 298.475C74.0471 290.788 81.9679 286.203 89.4649 288.585L134.8 302.99L183.904 314.674L244.483 327.511L291.715 332.667Z" fill="#BF7D4D" stroke="#462D1B" stroke-width="2"/>
<path d="M135 181.745L147.125 180.497C155.013 179.685 162.983 180.291 170.659 182.287C180.149 184.755 188.976 189.293 196.506 195.574L199.82 198.339" stroke="#462D1B" stroke-width="7"/>
<path d="M244 204.788L256.096 203.282C263.965 202.303 271.947 202.74 279.662 204.573C289.203 206.839 298.124 211.188 305.786 217.308L309.158 220.002" stroke="#462D1B" stroke-width="7"/>
</g>
<defs>
<clipPath id="clip0_245_249">
<rect width="383" height="327" fill="white"/>
</clipPath>
</defs>
</svg>
