<svg width="1000" height="1000" viewBox="0 0 1000 1000" fill="none" xmlns="http://www.w3.org/2000/svg">
<g clip-path="url(#clip0_36_73)">
<path d="M797 30C906.352 30 995 118.648 995 228V772.5C995 881.852 906.352 970.5 797 970.5H574V649H697.5C724.838 649 747 626.838 747 599.5V401.5C747 374.162 724.838 352 697.5 352H301.5C274.162 352 252 374.162 252 401.5V599.5C252 626.838 274.162 649 301.5 649H426V970.5H203C93.6476 970.5 5 881.852 5 772.5V228C5 118.648 93.6476 30 203 30H797Z" fill="#DB925E"/>
</g>
<defs>
<clipPath id="clip0_36_73">
<rect width="1000" height="1000" fill="white"/>
</clipPath>
</defs>
</svg>
